<?xml version="1.0" encoding="UTF-8" standalone="no"?>
<svg width="48px" height="48px" viewBox="0 0 48 48" version="1.1" xmlns="http://www.w3.org/2000/svg" xmlns:xlink="http://www.w3.org/1999/xlink">
    <!-- Generator: Sketch 40.3 (33839) - http://www.bohemiancoding.com/sketch -->
    <title>Instagram-color</title>
    <desc>Created with Sketch.</desc>
    <defs></defs>
    <g id="individual-page" stroke="none" stroke-width="1" fill="none" fill-rule="evenodd">
        <g id="Desktop-HD" transform="translate(-855.000000, -92.000000)" fill="#9B9B9B">
            <g id="Header" transform="translate(50.000000, 50.000000)">
                <path d="M829.000048,42 C822.481991,42 821.664686,42.0276278 819.104831,42.1444265 C816.550311,42.2609395 814.805665,42.6666865 813.279088,43.2600166 C811.700876,43.8732576 810.362454,44.6938975 809.028128,46.0281279 C807.693897,47.3624536 806.873258,48.7008759 806.260017,50.279088 C805.666687,51.8056649 805.260939,53.5503105 805.144427,56.1048307 C805.027628,58.6646859 805,59.4819913 805,66.0000476 C805,72.5180087 805.027628,73.3353141 805.144427,75.8951693 C805.260939,78.4496895 805.666687,80.1943351 806.260017,81.720912 C806.873258,83.2991241 807.693897,84.6375464 809.028128,85.9718721 C810.362454,87.3061025 811.700876,88.1267424 813.279088,88.7400787 C814.805665,89.3333135 816.550311,89.7390605 819.104831,89.8555735 C821.664686,89.9723722 822.481991,90 829.000048,90 C835.518009,90 836.335314,89.9723722 838.895169,89.8555735 C841.449689,89.7390605 843.194335,89.3333135 844.720912,88.7400787 C846.299124,88.1267424 847.637546,87.3061025 848.971872,85.9718721 C850.306103,84.6375464 851.126742,83.2991241 851.740079,81.720912 C852.333313,80.1943351 852.739061,78.4496895 852.855573,75.8951693 C852.972372,73.3353141 853,72.5180087 853,66.0000476 C853,59.4819913 852.972372,58.6646859 852.855573,56.1048307 C852.739061,53.5503105 852.333313,51.8056649 851.740079,50.279088 C851.126742,48.7008759 850.306103,47.3624536 848.971872,46.0281279 C847.637546,44.6938975 846.299124,43.8732576 844.720912,43.2600166 C843.194335,42.6666865 841.449689,42.2609395 838.895169,42.1444265 C836.335314,42.0276278 835.518009,42 829.000048,42 Z M829.000048,46.3243166 C835.40826,46.3243166 836.167356,46.3488005 838.69806,46.4642655 C841.038036,46.5709658 842.308818,46.9619463 843.154513,47.2906214 C844.274771,47.7259969 845.074262,48.2460657 845.91405,49.0859497 C846.753934,49.9257385 847.274003,50.7252288 847.709379,51.845487 C848.038054,52.6911823 848.429034,53.9619642 848.535734,56.3019405 C848.651199,58.8326436 848.675683,59.5917403 848.675683,66.0000476 C848.675683,72.4082597 848.651199,73.1673564 848.535734,75.6980595 C848.429034,78.0380358 848.038054,79.3088177 847.709379,80.154513 C847.274003,81.2747712 846.753934,82.0742615 845.91405,82.9140503 C845.074262,83.7539343 844.274771,84.2740031 843.154513,84.7093786 C842.308818,85.0380537 841.038036,85.4290342 838.69806,85.5357345 C836.167737,85.6511995 835.408736,85.6756834 829.000048,85.6756834 C822.591264,85.6756834 821.832358,85.6511995 819.30194,85.5357345 C816.961964,85.4290342 815.691182,85.0380537 814.845487,84.7093786 C813.725229,84.2740031 812.925738,83.7539343 812.08595,82.9140503 C811.246161,82.0742615 810.725997,81.2747712 810.290621,80.154513 C809.961946,79.3088177 809.570966,78.0380358 809.464266,75.6980595 C809.348801,73.1673564 809.324317,72.4082597 809.324317,66.0000476 C809.324317,59.5917403 809.348801,58.8326436 809.464266,56.3019405 C809.570966,53.9619642 809.961946,52.6911823 810.290621,51.845487 C810.725997,50.7252288 811.246066,49.9257385 812.08595,49.0859497 C812.925738,48.2460657 813.725229,47.7259969 814.845487,47.2906214 C815.691182,46.9619463 816.961964,46.5709658 819.30194,46.4642655 C821.832644,46.3488005 822.59174,46.3243166 829.000048,46.3243166 Z M829.000048,53.6756834 C822.193424,53.6756834 816.675683,59.1934241 816.675683,66.0000476 C816.675683,72.8065759 822.193424,78.3243166 829.000048,78.3243166 C835.806576,78.3243166 841.324317,72.8065759 841.324317,66.0000476 C841.324317,59.1934241 835.806576,53.6756834 829.000048,53.6756834 Z M829.000048,74 C824.581701,74 821,70.4182986 821,66.0000476 C821,61.5817014 824.581701,58 829.000048,58 C833.418299,58 837,61.5817014 837,66.0000476 C837,70.4182986 833.418299,74 829.000048,74 Z M844.691284,53.1887679 C844.691284,54.7793649 843.401829,56.0687241 841.811232,56.0687241 C840.22073,56.0687241 838.931276,54.7793649 838.931276,53.1887679 C838.931276,51.5981709 840.22073,50.3087164 841.811232,50.3087164 C843.401829,50.3087164 844.691284,51.5981709 844.691284,53.1887679 Z" id="Instagram"></path>
            </g>
        </g>
    </g>
</svg>