<?xml version="1.0" encoding="UTF-8" standalone="no"?>
<svg width="48px" height="48px" viewBox="0 0 48 48" version="1.1" xmlns="http://www.w3.org/2000/svg" xmlns:xlink="http://www.w3.org/1999/xlink">
    <!-- Generator: Sketch 40.3 (33839) - http://www.bohemiancoding.com/sketch -->
    <title>Pinterest-color</title>
    <desc>Created with Sketch.</desc>
    <defs></defs>
    <g id="individual-page" stroke="none" stroke-width="1" fill="none" fill-rule="evenodd">
        <g id="Desktop-HD" transform="translate(-545.000000, -213.000000)" fill="#CC2127">
            <g id="pinterest-card-w-picture" transform="translate(525.000000, 200.000000)">
                <g id="pinterest-header">
                    <path d="M44.0014112,13 C30.7475745,13 20,23.7447522 20,37.0014112 C20,46.8260716 25.910037,55.2705945 34.3686717,58.9820074 C34.3009349,57.3083436 34.3573823,55.2931734 34.7835597,53.4699241 C35.2464279,51.5224907 37.8712295,40.3938966 37.8712295,40.3938966 C37.8712295,40.3938966 37.106368,38.8613512 37.106368,36.5949903 C37.106368,33.0388075 39.1695184,30.38296 41.7350503,30.38296 C43.9167402,30.38296 44.9723055,32.0227553 44.9723055,33.9871229 C44.9723055,36.1801023 43.5724114,39.4625154 42.8527077,42.502205 C42.2515435,45.0508026 44.1284177,47.1252425 46.6403246,47.1252425 C51.1871582,47.1252425 54.2494267,41.2857647 54.2494267,34.3653202 C54.2494267,29.10725 50.7073558,25.1700476 44.2638913,25.1700476 C36.9850062,25.1700476 32.449462,30.5974599 32.449462,36.6599047 C32.449462,38.7541013 33.064738,40.227377 34.0299877,41.3676133 C34.4759217,41.895396 34.5351914,42.1042512 34.3743165,42.7082378 C34.2614218,43.1457047 33.9961192,44.2125595 33.8860469,44.6330923 C33.725172,45.2399012 33.2340801,45.4600459 32.6865408,45.2342565 C29.3307462,43.8654084 27.7699771,40.1935086 27.7699771,36.0643853 C27.7699771,29.2483683 33.5191392,21.069148 44.9215029,21.069148 C54.0857294,21.069148 60.1171282,27.7045334 60.1171282,34.8197213 C60.1171282,44.2351385 54.8844593,51.2684777 47.1652849,51.2684777 C44.5771741,51.2684777 42.1386488,49.8685835 41.3032281,48.2795908 C41.3032281,48.2795908 39.9089787,53.8086082 39.6154525,54.875463 C39.1074264,56.7241136 38.1111307,58.5755865 37.1995061,60.0149938 C39.358617,60.6528488 41.6390898,61 44.0014112,61 C57.2552478,61 68,50.2552478 68,37.0014112 C68,23.7447522 57.2552478,13 44.0014112,13" id="Pinterest"></path>
                </g>
            </g>
        </g>
    </g>
</svg>